<svg width="90" height="89" viewBox="0 0 90 89" fill="none" xmlns="http://www.w3.org/2000/svg">
<g clip-path="url(#clip0_68_16)">
<path d="M44.6135 58.4062C52.2937 58.4062 58.5198 52.1802 58.5198 44.5C58.5198 36.8198 52.2937 30.5938 44.6135 30.5938C36.9333 30.5938 30.7073 36.8198 30.7073 44.5C30.7073 52.1802 36.9333 58.4062 44.6135 58.4062Z" stroke="white" stroke-width="5.5625" stroke-miterlimit="10"/>
<path d="M61.301 11.125H27.926C18.7098 11.125 11.2385 18.5962 11.2385 27.8125V61.1875C11.2385 70.4038 18.7098 77.875 27.926 77.875H61.301C70.5173 77.875 77.9885 70.4038 77.9885 61.1875V27.8125C77.9885 18.5962 70.5173 11.125 61.301 11.125Z" stroke="white" stroke-width="5.5625" stroke-linecap="round" stroke-linejoin="round"/>
<path d="M62.6917 30.5938C64.9957 30.5938 66.8635 28.7259 66.8635 26.4219C66.8635 24.1178 64.9957 22.25 62.6917 22.25C60.3876 22.25 58.5198 24.1178 58.5198 26.4219C58.5198 28.7259 60.3876 30.5938 62.6917 30.5938Z" fill="white"/>
</g>
<defs>
<clipPath id="clip0_68_16">
<rect width="89" height="89" fill="white" transform="translate(0.113525)"/>
</clipPath>
</defs>
</svg>
