<svg width="68" height="46" viewBox="0 0 68 46" fill="none" xmlns="http://www.w3.org/2000/svg">
<path fill-rule="evenodd" clip-rule="evenodd" d="M18.7311 3.41628V3.41631C17.2553 6.02704 16.2666 9.02324 15.7457 12.4049C14.9566 12.317 14.1267 12.273 13.256 12.273C10.4805 12.273 8.1046 12.7183 6.12841 13.6089C4.15222 14.4906 2.63677 15.7285 1.58206 17.3226C0.527354 18.9079 0 20.7514 0 22.8532C0 24.955 0.527354 26.8029 1.58206 28.3971C2.63677 29.9823 4.15222 31.2202 6.12841 32.1108C8.1046 32.9925 10.4805 33.4333 13.256 33.4333C15.1673 33.4333 16.876 33.2252 18.3821 32.8088C18.5069 33.0499 18.6354 33.288 18.7677 33.5231C21.0919 37.6036 24.2199 40.7075 28.1518 42.835C32.1011 44.945 36.5223 46 41.4153 46C46.2733 46 50.677 44.9537 54.6264 42.8611C58.5757 40.7511 61.7125 37.6559 64.0367 33.5754C66.3609 29.4774 67.523 24.4466 67.523 18.4827C67.523 12.5189 66.7023 7.49678 64.3781 3.41628C64.3781 1.52952 54.1597 0 41.5546 0C28.9496 0 18.7311 1.52952 18.7311 3.41628ZM16.1738 26.6945C15.5964 24.1864 15.3076 21.4492 15.3076 18.4827C15.3076 18.3961 15.3079 18.3098 15.3084 18.2236C14.7673 17.9257 14.1276 17.7768 13.3892 17.7768C12.5899 17.7768 11.8904 17.9638 11.2909 18.3379C10.6914 18.703 10.2251 19.2596 9.89205 20.0077C9.55899 20.7469 9.39245 21.6776 9.39245 22.7997C9.39245 23.9219 9.55899 24.857 9.89205 25.6051C10.2251 26.3443 10.6914 26.9009 11.2909 27.2749C11.8904 27.6401 12.5899 27.8226 13.3892 27.8226C14.0665 27.8226 14.666 27.698 15.1878 27.4486C15.5701 27.2594 15.8988 27.008 16.1738 26.6945ZM41.5546 5.6938C51.0084 5.6938 58.6722 4.92904 58.6722 3.98566C58.6722 3.04228 51.0084 2.27752 41.5546 2.27752C32.1008 2.27752 24.437 3.04228 24.437 3.98566C24.437 4.92904 32.1008 5.6938 41.5546 5.6938ZM51.0866 15.8586C51.9428 18.0558 52.371 20.7587 52.371 23.9673C52.371 27.1759 51.9428 29.8875 51.0866 32.1021C50.2478 34.2993 48.9983 35.9734 47.3382 37.1243C45.6955 38.2578 43.6684 38.8245 41.2569 38.8245C38.8453 38.8245 36.8095 38.2578 35.1494 37.1243C33.5067 35.9734 32.2573 34.2993 31.401 32.1021C30.5622 29.8875 30.1428 27.1759 30.1428 23.9673C30.1428 20.7587 30.5622 18.0558 31.401 15.8586C32.2573 13.644 33.5067 11.9699 35.1494 10.8365C36.8095 9.68555 38.8453 9.11009 41.2569 9.11009C43.6684 9.11009 45.6955 9.68555 47.3382 10.8365C48.9983 11.9699 50.2478 13.644 51.0866 15.8586Z" fill="black"/>
</svg>
