<svg width="90" height="89" viewBox="0 0 90 89" fill="none" xmlns="http://www.w3.org/2000/svg">
<g clip-path="url(#clip0_68_13)">
<path d="M57.2648 50.5283C57.6499 50.272 58.093 50.1158 58.5537 50.0739C59.0145 50.032 59.4784 50.1057 59.9035 50.2884L76.299 57.6344C76.8515 57.8705 77.3127 58.2793 77.6135 58.7994C77.9143 59.3196 78.0386 59.9232 77.9677 60.5199C77.4276 64.5564 75.4398 68.2593 72.3741 70.94C69.3085 73.6207 65.3735 75.0968 61.3011 75.0937C48.7613 75.0937 36.7351 70.1123 27.8682 61.2453C19.0012 52.3783 14.0198 40.3522 14.0198 27.8124C14.0167 23.74 15.4928 19.805 18.1735 16.7393C20.8542 13.6736 24.5571 11.6859 28.5936 11.1458C29.1903 11.0749 29.7939 11.1991 30.314 11.5C30.8342 11.8008 31.2429 12.262 31.4791 12.8145L38.8251 29.2239C39.0056 29.6454 39.0791 30.1049 39.039 30.5616C38.999 31.0184 38.8467 31.4581 38.5956 31.8417L31.1662 40.6757C30.9027 41.0733 30.7468 41.5326 30.7139 42.0085C30.681 42.4844 30.7722 42.9607 30.9785 43.3909C33.8536 49.2767 39.9376 55.2877 45.8408 58.135C46.2732 58.3404 46.7517 58.4295 47.2291 58.3935C47.7064 58.3576 48.1662 58.1977 48.5629 57.9299L57.2648 50.5283Z" stroke="white" stroke-width="5.5625" stroke-linecap="round" stroke-linejoin="round"/>
</g>
<defs>
<clipPath id="clip0_68_13">
<rect width="89" height="89" fill="white" transform="translate(0.113556)"/>
</clipPath>
</defs>
</svg>
